<?xml version="1.0" standalone="no"?>
<!DOCTYPE svg PUBLIC "-//W3C//DTD SVG 20010904//EN"
 "http://www.w3.org/TR/2001/REC-SVG-20010904/DTD/svg10.dtd">
<svg version="1.0" xmlns="http://www.w3.org/2000/svg"
 width="498.000000pt" height="501.000000pt" viewBox="0 0 498.000000 501.000000"
 preserveAspectRatio="xMidYMid meet">

<g transform="translate(0.000000,501.000000) scale(0.100000,-0.100000)"
fill="#000000" stroke="none">
<path d="M2335 4954 c-115 -8 -104 12 -108 -202 l-2 -187 -3 188 c-2 150 -5
187 -16 187 -7 0 -38 -5 -67 -10 -30 -6 -68 -13 -84 -16 -17 -2 -44 -8 -60
-12 l-30 -8 -5 -190 -6 -189 -2 189 -2 188 -33 -6 c-50 -9 -272 -84 -367 -123
-350 -144 -716 -420 -947 -713 -15 -20 -34 -42 -41 -50 -31 -35 -130 -182
-152 -226 -14 -27 -28 -51 -31 -54 -14 -12 -38 -68 -31 -75 4 -5 2 -5 -4 -2
-13 7 -98 -169 -89 -184 4 -5 2 -9 -3 -9 -12 0 -43 -73 -73 -170 -12 -41 -26
-79 -30 -85 -4 -5 -16 -53 -27 -105 -12 -52 -24 -108 -28 -125 -3 -16 -9 -86
-12 -155 -4 -90 -8 -112 -12 -80 -10 79 -23 -202 -15 -324 4 -61 8 -116 8
-123 0 -7 4 -10 9 -7 4 3 8 -29 8 -70 0 -42 5 -78 11 -81 6 -4 8 -13 5 -20 -2
-7 2 -44 10 -82 8 -37 16 -78 18 -90 3 -13 7 -26 10 -31 3 -5 7 -19 9 -33 13
-71 98 -287 173 -443 l19 -39 5 224 6 224 2 -238 2 -238 27 -47 c29 -50 89
-142 151 -232 22 -30 44 -54 51 -52 7 1 10 -2 7 -7 -5 -7 15 -39 49 -78 39
-45 227 -231 262 -259 23 -19 48 -40 55 -47 120 -113 454 -309 643 -378 33
-12 79 -30 101 -40 23 -10 55 -21 70 -24 16 -4 58 -15 94 -25 157 -44 344 -79
358 -66 3 3 11 1 18 -5 16 -13 360 -18 479 -6 138 13 369 57 426 81 19 8 39
15 44 15 36 4 124 35 119 42 -3 5 5 9 18 9 63 0 444 188 494 245 12 13 24 21
27 18 5 -5 64 32 77 47 3 4 25 20 50 37 25 17 60 45 79 62 19 17 38 31 43 31
4 0 8 6 8 13 0 6 15 22 33 35 19 12 74 65 123 116 105 111 114 122 114 136 0
5 3 10 8 10 22 0 242 321 242 354 0 8 4 16 10 18 29 10 210 453 195 478 -3 6
-2 10 4 10 6 0 15 17 20 38 13 49 40 178 46 222 3 19 11 60 17 90 8 34 13 148
13 305 0 277 -6 333 -70 615 -10 47 -42 147 -73 233 l-36 97 -175 2 -176 2
172 6 172 5 -58 115 c-94 188 -198 356 -262 425 -16 16 -29 34 -29 38 0 5 -4
5 -10 2 -5 -3 -10 1 -10 9 0 22 -89 118 -256 277 -33 30 -106 91 -164 134
l-105 78 -5 -214 -6 -214 -2 218 -2 217 -57 37 c-268 171 -655 308 -995 353
-88 11 -354 20 -443 14z m415 -415 c106 -12 231 -36 290 -56 25 -8 52 -16 60
-18 64 -15 278 -106 380 -163 209 -116 435 -301 561 -459 32 -41 60 -67 62
-60 3 6 6 3 6 -8 1 -29 20 -45 55 -46 24 -1 26 -3 9 -6 -13 -2 -23 -7 -23 -9
0 -10 23 -48 40 -66 9 -10 38 -56 64 -103 26 -47 52 -85 58 -85 5 0 6 -4 3
-10 -3 -5 9 -40 29 -77 76 -149 152 -425 176 -638 14 -131 12 -333 -5 -474 -9
-68 -18 -128 -21 -132 -3 -5 3 -10 13 -10 16 -1 16 -2 1 -6 -9 -2 -20 -19 -24
-36 -3 -18 -17 -69 -30 -115 -14 -46 -26 -91 -28 -100 -1 -9 -13 -39 -24 -65
-12 -27 -22 -52 -22 -55 0 -35 -217 -411 -256 -442 -11 -10 -14 -60 -16 -274
l-2 -261 -6 248 -5 248 -33 -43 c-41 -53 -202 -218 -214 -218 -4 0 -8 -9 -8
-21 0 -11 -4 -18 -9 -14 -6 3 -49 -25 -98 -62 -145 -110 -291 -195 -458 -265
-76 -32 -224 -84 -265 -92 -14 -3 -60 -15 -104 -26 -43 -12 -81 -19 -84 -16
-3 3 -11 1 -18 -5 -13 -11 -489 -16 -546 -7 -21 4 -28 1 -29 -11 0 -10 -2 -11
-6 -4 -4 12 -42 25 -103 37 -14 3 -47 10 -75 16 -27 6 -57 12 -65 14 -13 2
-16 -23 -20 -168 l-6 -171 -2 177 -2 176 -32 8 c-18 4 -38 9 -45 10 -35 6
-220 83 -306 127 -99 50 -310 185 -337 215 -8 9 -38 35 -65 57 -48 38 -145
134 -213 208 -69 76 -130 160 -220 307 -33 53 -127 248 -147 305 l-17 50 -82
-1 -81 -1 78 4 c42 2 77 7 77 12 0 4 -9 34 -20 67 -11 32 -23 72 -26 89 -3 16
-10 45 -16 63 -12 31 -14 32 -73 34 l-60 2 63 3 c54 3 62 7 58 21 -18 62 -30
234 -29 397 1 177 18 327 56 491 19 81 82 254 120 329 14 28 29 62 32 78 4 15
11 27 16 27 5 0 9 4 9 10 0 14 139 240 160 260 3 3 16 19 29 35 241 314 575
552 961 685 52 18 101 40 108 48 6 9 12 11 12 5 0 -10 10 -9 130 17 163 35
447 43 660 19z m1357 -612 c-1 -67 -3 -9 -3 128 0 138 2 192 3 122 2 -71 2
-183 0 -250z m270 -144 c-2 -37 -3 -9 -3 62 0 72 1 102 3 68 2 -34 2 -93 0
-130z m-3664 -60 c-56 -2 -151 -2 -210 0 -59 1 -14 3 102 3 116 0 164 -2 108
-3z m3610 0 c-24 -2 -62 -2 -85 0 -24 2 -5 4 42 4 47 0 66 -2 43 -4z m205 0
c-27 -2 -69 -2 -95 0 -27 2 -5 3 47 3 52 0 74 -1 48 -3z m-151 -45 c-3 -7 -5
-2 -5 12 0 14 2 19 5 13 2 -7 2 -19 0 -25z m0 -160 c-2 -29 -3 -8 -3 47 0 55
1 79 3 53 2 -26 2 -71 0 -100z m-4030 -20 c-2 -18 -4 -4 -4 32 0 36 2 50 4 33
2 -18 2 -48 0 -65z m236 -45 c-35 -2 -91 -2 -125 0 -35 2 -7 3 62 3 69 0 97
-1 63 -3z m-236 -1000 c-1 -181 -2 -33 -2 327 0 360 1 508 2 328 2 -181 2
-475 0 -655z m-270 -45 c-1 -51 -3 -12 -3 87 0 99 2 141 3 93 2 -48 2 -129 0
-180z m226 -295 c-34 -2 -93 -2 -130 0 -37 2 -10 3 62 3 72 0 102 -1 68 -3z
m4500 0 c-45 -2 -122 -2 -170 0 -48 1 -11 3 82 3 94 0 133 -2 88 -3z m-4456
-190 c-2 -32 -3 -8 -3 52 0 61 1 87 3 58 2 -29 2 -78 0 -110z m-65 -80 c-23
-2 -61 -2 -85 0 -23 2 -4 4 43 4 47 0 66 -2 42 -4z m4441 0 c-51 -2 -136 -2
-190 0 -54 1 -12 3 92 3 105 0 149 -2 98 -3z m-346 -165 c-3 -7 -5 -2 -5 12 0
14 2 19 5 13 2 -7 2 -19 0 -25z m0 -70 c-2 -13 -4 -5 -4 17 -1 22 1 32 4 23 2
-10 2 -28 0 -40z m0 -465 c-1 -81 -3 -17 -3 142 0 160 2 226 3 148 2 -78 2
-208 0 -290z m-540 -515 c-1 -62 -3 -14 -3 107 0 121 2 172 3 113 2 -59 2
-158 0 -220z m-1610 -300 c-2 -24 -4 -5 -4 42 0 47 2 66 4 43 2 -24 2 -62 0
-85z m0 -90 c-3 -7 -5 -2 -5 12 0 14 2 19 5 13 2 -7 2 -19 0 -25z m-490 -4
c-3 -3 -12 -4 -19 -1 -8 3 -5 6 6 6 11 1 17 -2 13 -5z m161 -1 c-26 -2 -71 -2
-100 0 -29 2 -8 3 47 3 55 0 79 -1 53 -3z m245 0 c-29 -2 -78 -2 -110 0 -32 2
-8 3 52 3 61 0 87 -1 58 -3z m879 0 c-144 -2 -380 -2 -525 0 -144 1 -26 2 263
2 289 0 407 -1 262 -2z m-795 -80 c-2 -16 -4 -5 -4 22 0 28 2 40 4 28 2 -13 2
-35 0 -50z m-270 25 c-3 -8 -6 -5 -6 6 -1 11 2 17 5 13 3 -3 4 -12 1 -19z"/>
<path d="M2405 3663 c-92 -32 -175 -138 -175 -225 0 -63 31 -154 65 -191 52
-57 99 -80 180 -85 88 -5 144 17 205 80 42 44 88 164 75 195 -4 10 -9 29 -10
43 -6 67 -85 155 -164 184 -54 19 -119 19 -176 -1z m198 -210 c-68 -2 -178 -2
-245 0 -68 1 -13 3 122 3 135 0 190 -2 123 -3z"/>
<path d="M2412 2915 c-43 -23 -73 -56 -93 -98 -17 -39 -19 -69 -19 -369 l0
-328 173 -3 172 -3 -172 -2 -173 -2 0 -254 c0 -278 5 -309 56 -362 16 -17 42
-35 57 -42 38 -16 132 -15 165 2 36 19 78 65 91 99 6 16 11 132 11 291 0 243
-2 265 -18 269 -16 4 -16 5 1 6 16 1 17 24 17 336 0 312 -1 338 -19 373 -35
67 -95 102 -173 101 -29 -1 -63 -7 -76 -14z m151 -1072 c-46 -2 -120 -2 -165
0 -46 1 -9 3 82 3 91 0 128 -2 83 -3z"/>
</g>
</svg>
